<svg width="55" height="77" viewBox="0 0 55 77" fill="none" xmlns="http://www.w3.org/2000/svg">
<path d="M46.4561 61.6273C44.3335 60.6208 41.5928 59.8071 38.4301 59.2341C39.353 58.2843 40.2968 57.2687 41.2429 56.1905C45.0214 51.8839 48.0364 47.4841 50.2043 43.1129C52.9448 37.5869 54.3343 32.0884 54.3343 26.77C54.3343 12.009 42.2478 0 27.3917 0C12.5356 0 0.449219 12.009 0.449219 26.77C0.449219 32.0884 1.8387 37.5869 4.57921 43.113C6.74703 47.4842 9.76205 51.8841 13.5406 56.1906C14.4866 57.2688 15.4305 58.2845 16.3534 59.2342C13.1906 59.8072 10.45 60.6209 8.32736 61.6275C4.29032 63.5417 3.44283 65.7267 3.44283 67.2225C3.44283 69.1167 4.76137 71.8112 11.0423 73.8916C15.4317 75.3453 21.2379 76.1459 27.3917 76.1459C33.5456 76.1459 39.3518 75.3453 43.7412 73.8916C50.0221 71.8112 51.3406 69.1167 51.3406 67.2225C51.3406 65.7267 50.4932 63.5417 46.4561 61.6273ZM3.44283 26.77C3.44283 13.6492 14.1863 2.97445 27.3917 2.97445C40.5972 2.97445 51.3406 13.6492 51.3406 26.77C51.3406 37.8121 44.6465 47.7732 39.0308 54.1852C34.2067 59.6933 29.3241 63.605 27.3917 65.0717C25.4589 63.6046 20.5763 59.6929 15.7527 54.1854C10.137 47.7732 3.44283 37.8121 3.44283 26.77ZM42.7945 71.0698C38.7024 72.425 33.2323 73.1714 27.3917 73.1714C21.5512 73.1714 16.0811 72.425 11.989 71.0698C7.89059 69.7125 6.43645 68.1489 6.43645 67.2225C6.43645 65.6775 10.3373 63.0167 18.9849 61.8278C20.2656 63.0372 21.4581 64.09 22.5002 64.9713C20.9124 65.5164 19.9077 66.3225 19.9077 67.2225C19.9077 68.8659 23.2591 70.197 27.3917 70.197C31.5244 70.197 34.8758 68.8659 34.8758 67.2225C34.8758 66.3225 33.8711 65.5164 32.2833 64.9713C33.3254 64.09 34.5179 63.0372 35.7986 61.8278C44.4462 63.0167 48.347 65.6775 48.347 67.2225C48.347 68.1489 46.8929 69.7125 42.7945 71.0698Z" fill="#600EE4"/>
<path d="M48.35 26.7704C48.35 15.2896 38.9495 5.94922 27.3947 5.94922C15.84 5.94922 6.43945 15.2896 6.43945 26.7704C6.43945 38.2511 15.84 47.5915 27.3947 47.5915C38.9495 47.5915 48.35 38.2511 48.35 26.7704ZM9.43307 26.7704C9.43307 16.9297 17.4907 8.92367 27.3947 8.92367C37.2988 8.92367 45.3564 16.9297 45.3564 26.7704C45.3564 36.611 37.2988 44.6171 27.3947 44.6171C17.4907 44.6171 9.43307 36.611 9.43307 26.7704Z" fill="#600EE4"/>
<path d="M28.8869 37.1813C28.8869 38.0027 29.557 38.6685 30.3837 38.6685H36.3709C37.1976 38.6685 37.8677 38.0027 37.8677 37.1813V29.7452H40.8613C41.4828 29.7452 42.0396 29.3637 42.2604 28.7865C42.4812 28.2093 42.3201 27.5566 41.8557 27.1464L28.3844 15.2486C27.8173 14.7477 26.9627 14.7477 26.3956 15.2486L12.9243 27.1464C12.4599 27.5566 12.2988 28.2093 12.5196 28.7865C12.7404 29.3637 13.2973 29.7452 13.9188 29.7452H16.9124V37.1813C16.9124 38.0027 17.5826 38.6685 18.4092 38.6685H24.3965C25.2232 38.6685 25.8933 38.0027 25.8933 37.1813V32.7196H28.8869V37.1813ZM24.3965 29.7452C23.5698 29.7452 22.8997 30.411 22.8997 31.2324V35.6941H19.906V28.2579C19.906 27.4366 19.2359 26.7707 18.4092 26.7707H17.8557L27.3901 18.3499L36.9244 26.7707H36.3709C35.5442 26.7707 34.8741 27.4366 34.8741 28.2579V35.6941H31.8805V31.2324C31.8805 30.411 31.2104 29.7452 30.3837 29.7452H24.3965Z" fill="#600EE4"/>
</svg>
